<mxfile host="app.diagrams.net" modified="2021-03-23T09:56:14.444Z" agent="5.0 (Macintosh; Intel Mac OS X 11_2_0) AppleWebKit/537.36 (KHTML, like Gecko) Chrome/89.0.4389.90 Safari/537.36" etag="fb2USNM0ZTdJZPH57wYU" version="14.4.7" type="github">
  <diagram id="HzWzBV-Ko5Qif99Qbhxo" name="Page-1">
    <mxGraphModel dx="1426" dy="794" grid="1" gridSize="10" guides="1" tooltips="1" connect="1" arrows="1" fold="1" page="1" pageScale="1" pageWidth="1654" pageHeight="1169" math="0" shadow="0">
      <root>
        <mxCell id="0" />
        <mxCell id="1" parent="0" />
        <mxCell id="RJGHtjczU68DZFsb8425-1" value="Backoffice IJ" style="swimlane;fillColor=#f5f5f5;strokeColor=#666666;fontColor=#333333;rounded=1;" vertex="1" parent="1">
          <mxGeometry x="60" y="40" width="370" height="320" as="geometry" />
        </mxCell>
        <mxCell id="RJGHtjczU68DZFsb8425-2" value="Offer Publication" style="swimlane;startSize=20;rounded=1;" vertex="1" parent="RJGHtjczU68DZFsb8425-1">
          <mxGeometry x="10" y="40" width="250" height="190" as="geometry">
            <mxRectangle x="10" y="40" width="130" height="20" as="alternateBounds" />
          </mxGeometry>
        </mxCell>
        <UserObject label="Gestión de borradores" treeRoot="1" id="RJGHtjczU68DZFsb8425-3">
          <mxCell style="whiteSpace=wrap;html=1;align=center;treeFolding=1;treeMoving=1;newEdgeStyle={&quot;edgeStyle&quot;:&quot;elbowEdgeStyle&quot;,&quot;startArrow&quot;:&quot;none&quot;,&quot;endArrow&quot;:&quot;none&quot;};fillColor=#dae8fc;strokeColor=#6c8ebf;" vertex="1" collapsed="1" parent="RJGHtjczU68DZFsb8425-2">
            <mxGeometry x="10" y="30" width="110" height="40" as="geometry" />
          </mxCell>
        </UserObject>
        <UserObject label="Sugeridor" treeRoot="1" id="RJGHtjczU68DZFsb8425-4">
          <mxCell style="whiteSpace=wrap;html=1;align=center;treeFolding=1;treeMoving=1;newEdgeStyle={&quot;edgeStyle&quot;:&quot;elbowEdgeStyle&quot;,&quot;startArrow&quot;:&quot;none&quot;,&quot;endArrow&quot;:&quot;none&quot;};fillColor=#dae8fc;strokeColor=#6c8ebf;" vertex="1" collapsed="1" parent="RJGHtjczU68DZFsb8425-2">
            <mxGeometry x="10" y="80" width="110" height="40" as="geometry" />
          </mxCell>
        </UserObject>
        <UserObject label="Ayuda contextual" treeRoot="1" id="RJGHtjczU68DZFsb8425-5">
          <mxCell style="whiteSpace=wrap;html=1;align=center;treeFolding=1;treeMoving=1;newEdgeStyle={&quot;edgeStyle&quot;:&quot;elbowEdgeStyle&quot;,&quot;startArrow&quot;:&quot;none&quot;,&quot;endArrow&quot;:&quot;none&quot;};fillColor=#dae8fc;strokeColor=#6c8ebf;" vertex="1" collapsed="1" parent="RJGHtjczU68DZFsb8425-2">
            <mxGeometry x="10" y="130" width="110" height="40" as="geometry" />
          </mxCell>
        </UserObject>
        <UserObject label="Publicación de oferta" treeRoot="1" id="RJGHtjczU68DZFsb8425-6">
          <mxCell style="whiteSpace=wrap;html=1;align=center;treeFolding=1;treeMoving=1;newEdgeStyle={&quot;edgeStyle&quot;:&quot;elbowEdgeStyle&quot;,&quot;startArrow&quot;:&quot;none&quot;,&quot;endArrow&quot;:&quot;none&quot;};fillColor=#dae8fc;strokeColor=#6c8ebf;" vertex="1" collapsed="1" parent="RJGHtjczU68DZFsb8425-2">
            <mxGeometry x="130" y="30" width="110" height="40" as="geometry" />
          </mxCell>
        </UserObject>
      </root>
    </mxGraphModel>
  </diagram>
</mxfile>
